<?xml version="1.0" encoding="utf-8"?>
<!-- Generator: Adobe Illustrator 28.1.0, SVG Export Plug-In . SVG Version: 6.00 Build 0)  -->
<svg version="1.1" id="Calque_1" xmlns="http://www.w3.org/2000/svg" xmlns:xlink="http://www.w3.org/1999/xlink" x="0px" y="0px"
	 viewBox="0 0 16 16" style="enable-background:new 0 0 16 16;" xml:space="preserve">
<style type="text/css">
	.st0{fill:none;stroke:#E3F7F7;stroke-width:1.3333;stroke-linecap:round;stroke-linejoin:round;}
</style>
<path class="st0" d="M13.3,11.3V7.6c0-0.4,0-0.5,0-0.7c0-0.1-0.1-0.3-0.2-0.4C13,6.4,12.9,6.3,12.6,6L9.4,3.2
	c-0.5-0.4-0.7-0.7-1-0.7c-0.2-0.1-0.5-0.1-0.8,0s-0.5,0.3-1,0.7L3.4,6C3.1,6.3,3,6.4,2.9,6.5C2.8,6.6,2.7,6.8,2.7,6.9
	c0,0.2,0,0.3,0,0.7v3.7c0,0.6,0,0.9,0.1,1.2s0.4,0.6,0.7,0.7c0.2,0.1,0.6,0.1,1.2,0.1s0.9,0,1.2-0.1c0.3-0.1,0.6-0.4,0.7-0.7
	c0.1-0.2,0.1-0.6,0.1-1.2v-0.7c0-0.7,0.6-1.3,1.3-1.3s1.3,0.6,1.3,1.3v0.7c0,0.6,0,0.9,0.1,1.2s0.4,0.6,0.7,0.7
	c0.2,0.1,0.6,0.1,1.2,0.1c0.6,0,0.9,0,1.2-0.1s0.6-0.4,0.7-0.7C13.3,12.3,13.3,12,13.3,11.3z"/>
</svg>
