<?xml version="1.0" encoding="utf-8"?>
<!-- Generator: Adobe Illustrator 28.1.0, SVG Export Plug-In . SVG Version: 6.00 Build 0)  -->
<svg version="1.1" id="Calque_1" xmlns="http://www.w3.org/2000/svg" xmlns:xlink="http://www.w3.org/1999/xlink" x="0px" y="0px"
	 viewBox="0 0 16 16" style="enable-background:new 0 0 16 16;" xml:space="preserve">
<style type="text/css">
	.st0{fill:none;stroke:#E3F7F7;stroke-width:1.3333;stroke-linecap:round;stroke-linejoin:round;}
</style>
<path class="st0" d="M2.7,4l4.1,3.1l0,0c0.5,0.3,0.7,0.5,0.9,0.6c0.2,0.1,0.4,0.1,0.7,0c0.2-0.1,0.5-0.2,0.9-0.6c0,0,2.6-2,4.1-3.1
	 M2,10.5v-5c0-0.7,0-1.1,0.1-1.4s0.3-0.5,0.6-0.6C3,3.3,3.4,3.3,4.1,3.3h7.7c0.7,0,1.1,0,1.4,0.1c0.3,0.1,0.5,0.3,0.6,0.6
	C14,4.3,14,4.7,14,5.5v5.1c0,0.7,0,1.1-0.1,1.4c-0.1,0.3-0.3,0.5-0.6,0.6s-0.7,0.1-1.4,0.1H4.1c-0.7,0-1.1,0-1.4-0.1
	S2.2,12.3,2.1,12S2,11.3,2,10.5z"/>
</svg>
