<?xml version="1.0" encoding="utf-8"?>
<!-- Generator: Adobe Illustrator 28.1.0, SVG Export Plug-In . SVG Version: 6.00 Build 0)  -->
<svg version="1.1" id="Calque_1" xmlns="http://www.w3.org/2000/svg" xmlns:xlink="http://www.w3.org/1999/xlink" x="0px" y="0px"
	 viewBox="0 0 16 16" style="enable-background:new 0 0 16 16;" xml:space="preserve">
<style type="text/css">
	.st0{fill:none;stroke:#E3F7F7;stroke-width:1.3333;stroke-linecap:round;stroke-linejoin:round;}
</style>
<path class="st0" d="M2,11.3v-0.1V4.8c0-0.7,0-1.1,0.1-1.4s0.3-0.5,0.6-0.6C3,2.7,3.4,2.7,4.1,2.7h7.7c0.7,0,1.1,0,1.4,0.1
	c0.3,0.1,0.5,0.3,0.6,0.6C14,3.7,14,4.1,14,4.8v6.4c0,0.3,0,0.6,0,0.8 M2,11.3c0,0.7,0,1,0.1,1.3s0.3,0.5,0.6,0.6s0.7,0.1,1.4,0.1
	h7.7c0.7,0,1.1,0,1.4-0.1c0.3-0.1,0.5-0.3,0.6-0.6c0.1-0.2,0.1-0.4,0.1-0.6 M2,11.3l3.2-3.7l0,0C5.5,7.3,5.6,7.1,5.8,7
	c0.1,0,0.3,0,0.4,0.1c0.2,0.1,0.3,0.2,0.6,0.6l1.8,2.1c0.3,0.3,0.4,0.5,0.5,0.5c0.1,0.1,0.3,0.1,0.4,0c0.2,0,0.3-0.2,0.6-0.5
	l0.3-0.3C10.7,9.2,10.8,9.1,11,9c0.1,0,0.3,0,0.4,0c0.2,0.1,0.3,0.2,0.5,0.5L14,12 M14,12L14,12 M10,6.7C9.6,6.7,9.3,6.4,9.3,6
	S9.6,5.3,10,5.3s0.7,0.3,0.7,0.7C10.7,6.4,10.4,6.7,10,6.7z"/>
</svg>
