<?xml version="1.0" encoding="UTF-8"?>
<svg id="Calque_2" data-name="Calque 2" xmlns="http://www.w3.org/2000/svg" viewBox="0 0 705.32 800">
  <defs>
    <style>
      .cls-1 {
        fill: #EF233C;
        fill-rule: evenodd;
        stroke-width: 0px;
      }
    </style>
  </defs>
  <g id="Shape">
    <path id="path1" class="cls-1" d="M305.67,399.99c0-.2-26.26,1.06-55.08,5.35-77.82,11.91-164.61,43.84-217.24,100.62C15.05,526.01-1.67,552.54.13,579.62c1.43,17.22,10.11,30.19,25.38,38.72,21.68,11.68,48.95,10.69,72.9,5.81,45.24-9.58,88.09-34.69,123.83-63.09,113.21-90.86,182.83-237.83,182.87-356.79-.13-25.14-3.29-51.74-13.08-74.79-7.02-16.09-18.75-33.03-36.16-35.32-11.89-1.28-21.67,4.81-29.57,13.8-8.98,10.53-14.54,23.6-18.44,36.84-31.17,108.97,33.64,309.36,184.76,423.63,35.55,26.62,78.41,50.02,122.62,57.24,25.67,3.97,55.32,2.76,74.8-14.55,12.81-11.79,17.02-27.19,14.67-44.58-3.81-25.51-20.58-48.64-38.87-66.98-24.12-23.84-58.95-47.63-108.47-67.16-140.32-54.57-309.77-38.31-411.27,26.66-19.87,12.88-39.59,29.19-52.15,49.04-10.23,16.56-15.47,36.62-1.98,50.52,14.87,14.64,41.81,12.67,62.11,7.77,114.33-28.58,259.82-195.18,276.1-387.48,3.42-43,.26-90.19-17.53-129.09-8.63-18.43-21.07-36-39.27-44.95-18.59-8.76-36.6-5.31-52.48,6.96-26.14,20.79-38.51,58.93-43.66,91.77-23.08,153.5,76.8,357.66,218.72,439.66,25.58,14.59,58.22,28.14,87.54,26.65,19.38-1.22,35.91-9.51,37.85-28.75,1.52-19.1-12.01-38.46-25.27-52.39-22.28-23.04-51.91-40.39-81.4-53.28-63.26-27.27-134.88-38.04-204.56-35.68M542.67,350.78c102.32-56.77,99.75-130.09,22.39-119.86-109.1,15.47-267.97,179.73-289.19,382.35-4.01,40.22-2.46,83.28,10.7,121.69,8.09,23.02,21.19,46.4,42.16,58.46,20.73,11.48,41.26,7.34,58.75-7.8,19.76-17.59,30.81-44.69,37-70.52,34.06-146.75-60.04-364.24-209.44-455.04-26.03-15.63-58.98-30.22-89.37-30.11-16.81.26-33.86,5.37-39.95,21.11-6.93,19.21,6.67,41.35,20.23,56.61,79.48,87.82,306.04,133.51,483.86,45.55,34.81-17.44,69.31-41.13,92.94-72.06,13.87-18.48,25.14-41.32,22.05-64.32-3.08-20.28-16.52-33.2-35.6-39.81-25.16-8.33-54.17-4.32-79.57,3.22-144.38,43.95-285.43,234.4-289.36,408.9-.52,30.48,3.33,66.21,18.61,92.45,8.7,14.55,21.65,26.62,38.26,24.04,20.11-3.61,32.49-26.47,38.9-45.83,36.39-112.97-37.59-331.92-202.48-441.81-32.51-21.43-70.25-39.46-108.87-44.46-22.96-2.78-48.4-1.07-66.72,13.06C-.39,201.28-3.5,222.84,3.34,245.34c8.41,26.53,28.64,49.56,49.92,67.67,116.1,97.46,342.51,118.23,489.41,37.78Z"/>
  </g>
</svg>