<?xml version="1.0" encoding="UTF-8"?>
<svg id="Calque_2" data-name="Calque 2" xmlns="http://www.w3.org/2000/svg" viewBox="0 0 700 693.72">
  <defs>
    <style>
      .cls-1 {
        fill: #fff;
        stroke-width: 0px;
      }
    </style>
  </defs>
  <g id="Shape">
    <path class="cls-1" d="M448.9,31.13C382.64-4.09,301.36-9.78,230.84,15.88c-70.52,25.66-129.14,82.25-157.28,151.81,25.84-43.1,67.56-76.44,115.29-92.16,47.74-15.71,101.1-13.66,147.49,5.67,59.55,24.81,106.35,78.33,123.01,140.65,16.66,62.32,2.79,132.06-36.45,183.27,5.07-28.07,3.51-57.32-4.54-84.69-14.85-50.51-52.16-93.65-99.32-117.07-47.15-23.42-103.39-27.2-153.75-11.87-50.37,15.33-94.55,49.31-123.68,93.17C12.49,328.51-1.68,381.83.16,434.45c2.63,74.99,38.35,148.23,95.82,196.47,57.48,48.24,135.8,70.72,210.11,60.3-50.25-.83-99.98-20.28-137.46-53.77-37.48-33.49-62.38-80.72-68.84-130.56-8.29-63.98,14.66-131.27,60.31-176.86,45.65-45.59,112.97-68.44,176.94-60.07-26.85,9.64-51.4,25.62-71.08,46.27-36.32,38.11-55.02,92-51.73,144.54,3.3,52.55,28.13,103.14,66.59,139.09,38.46,35.96,89.98,57.22,142.53,60.53,52.55,3.3,105.8-11.08,150.45-38.99,63.63-39.77,109.2-107.32,122.24-181.22,13.04-73.9-6.65-152.97-52.83-212.11,24.41,43.93,32.42,96.73,22.16,145.93-10.26,49.2-38.72,94.38-78.65,124.9-51.26,39.17-121.01,52.94-183.32,36.2-62.3-16.74-115.76-63.61-140.49-123.2,21.77,18.43,47.89,31.7,75.61,38.42,51.17,12.4,107.18,1.65,151.04-27.48,43.86-29.13,75.25-75.93,87.16-127.22,11.91-51.29,4.57-106.54-18.84-153.69-23.41-47.16-62.5-86.09-108.99-110.8Z"/>
  </g>
</svg>