<svg width="16" height="16" viewBox="0 0 16 16" fill="none" xmlns="http://www.w3.org/2000/svg">
<path d="M13.3333 11.3334V7.63482C13.3333 7.27859 13.333 7.10038 13.2897 6.93462C13.2513 6.78772 13.1883 6.64871 13.103 6.52309C13.0068 6.38134 12.873 6.26379 12.6049 6.02922L9.40491 3.22922C8.90717 2.79369 8.6583 2.57604 8.37821 2.49321C8.13142 2.42023 7.86837 2.42023 7.62157 2.49321C7.3417 2.57598 7.09319 2.79343 6.5962 3.22829L3.39514 6.02922C3.12705 6.2638 2.99332 6.38134 2.89709 6.52309C2.81182 6.64871 2.74832 6.78772 2.70994 6.93462C2.66663 7.10038 2.66663 7.27859 2.66663 7.63482V11.3334C2.66663 11.9547 2.66663 12.2652 2.76812 12.5102C2.90345 12.8369 3.16284 13.0968 3.48954 13.2321C3.73457 13.3336 4.0452 13.3336 4.66645 13.3336C5.28771 13.3336 5.59868 13.3336 5.84371 13.2321C6.17041 13.0968 6.42974 12.837 6.56506 12.5103C6.66656 12.2653 6.66663 11.9546 6.66663 11.3334V10.6667C6.66663 9.93034 7.26358 9.33338 7.99996 9.33338C8.73634 9.33338 9.33329 9.93034 9.33329 10.6667V11.3334C9.33329 11.9546 9.33329 12.2653 9.43479 12.5103C9.57011 12.837 9.82951 13.0968 10.1562 13.2321C10.4012 13.3336 10.7119 13.3336 11.3331 13.3336C11.9544 13.3336 12.2653 13.3336 12.5104 13.2321C12.8371 13.0968 13.0964 12.8369 13.2317 12.5102C13.3332 12.2652 13.3333 11.9547 13.3333 11.3334Z" stroke="#202020" stroke-width="1.33333" stroke-linecap="round" stroke-linejoin="round"/>
</svg>
