<svg width="16" height="16" viewBox="0 0 16 16" fill="none" xmlns="http://www.w3.org/2000/svg">
<path d="M2.66667 3.99992L6.73842 7.07476L6.73978 7.07589C7.1919 7.40744 7.41809 7.57332 7.66584 7.63739C7.88482 7.69403 8.115 7.69403 8.33398 7.63739C8.58195 7.57326 8.8088 7.4069 9.26172 7.07476C9.26172 7.07476 11.8734 5.07055 13.3333 3.99992M2 10.5334V5.46672C2 4.71998 2 4.34633 2.14532 4.06112C2.27316 3.81023 2.47698 3.60641 2.72786 3.47858C3.01308 3.33325 3.38673 3.33325 4.13346 3.33325H11.8668C12.6135 3.33325 12.9864 3.33325 13.2716 3.47858C13.5225 3.60641 13.727 3.81023 13.8548 4.06112C14 4.34605 14 4.71925 14 5.46453V10.5356C14 11.2809 14 11.6536 13.8548 11.9385C13.727 12.1894 13.5225 12.3936 13.2716 12.5214C12.9867 12.6666 12.614 12.6666 11.8687 12.6666H4.13127C3.386 12.6666 3.0128 12.6666 2.72786 12.5214C2.47698 12.3936 2.27316 12.1894 2.14532 11.9385C2 11.6533 2 11.2801 2 10.5334Z" stroke="#202020" stroke-width="1.33333" stroke-linecap="round" stroke-linejoin="round"/>
</svg>
