<svg width="16" height="16" viewBox="0 0 16 16" fill="none" xmlns="http://www.w3.org/2000/svg">
<path d="M11.4778 12.8882C10.6233 11.9339 9.38177 11.3333 8 11.3333C6.61823 11.3333 5.37661 11.9339 4.52214 12.8882M8 14C4.68629 14 2 11.3137 2 8C2 4.68629 4.68629 2 8 2C11.3137 2 14 4.68629 14 8C14 11.3137 11.3137 14 8 14ZM8 9.33333C6.89543 9.33333 6 8.4379 6 7.33333C6 6.22876 6.89543 5.33333 8 5.33333C9.10457 5.33333 10 6.22876 10 7.33333C10 8.4379 9.10457 9.33333 8 9.33333Z" stroke="#202020" stroke-width="1.33333" stroke-linecap="round" stroke-linejoin="round"/>
</svg>
