<svg width="16" height="16" viewBox="0 0 16 16" fill="none" xmlns="http://www.w3.org/2000/svg">
<path d="M2.00003 11.3335C2 11.2904 2 11.246 2 11.2002V4.80021C2 4.05348 2 3.67983 2.14532 3.39461C2.27316 3.14373 2.47698 2.9399 2.72786 2.81207C3.01308 2.66675 3.38673 2.66675 4.13346 2.66675H11.8668C12.6135 2.66675 12.9867 2.66675 13.2719 2.81207C13.5228 2.9399 13.727 3.14373 13.8548 3.39461C14 3.67955 14 4.05274 14 4.79802V11.2021C14 11.5255 14 11.7787 13.9881 11.985M2.00003 11.3335C2.00055 11.9924 2.00891 12.3373 2.14532 12.605C2.27316 12.8559 2.47698 13.0604 2.72786 13.1882C3.0128 13.3334 3.386 13.3334 4.13127 13.3334H11.8691C12.6143 13.3334 12.987 13.3334 13.2719 13.1882C13.5228 13.0604 13.727 12.8559 13.8548 12.605C13.937 12.4437 13.9727 12.2543 13.9881 11.985M2.00003 11.3335L5.17865 7.62508L5.17959 7.62405C5.46151 7.29515 5.60271 7.13042 5.77018 7.07105C5.91729 7.01889 6.07791 7.02011 6.22428 7.0743C6.39109 7.13606 6.53004 7.30266 6.80794 7.63615L8.58872 9.77308C8.84597 10.0818 8.97534 10.237 9.13242 10.2993C9.27097 10.3543 9.42377 10.3605 9.56673 10.3183C9.72947 10.2703 9.87272 10.127 10.1592 9.84058L10.4906 9.5092C10.7822 9.21753 10.9281 9.07181 11.0931 9.02417C11.2381 8.98233 11.3931 8.99132 11.5326 9.04891C11.6913 9.11448 11.8201 9.275 12.0778 9.59709L13.9881 11.985M13.9881 11.985L14 11.9998M10 6.66675C9.63181 6.66675 9.33333 6.36827 9.33333 6.00008C9.33333 5.63189 9.63181 5.33341 10 5.33341C10.3682 5.33341 10.6667 5.63189 10.6667 6.00008C10.6667 6.36827 10.3682 6.66675 10 6.66675Z" stroke="#202020" stroke-width="1.33333" stroke-linecap="round" stroke-linejoin="round"/>
</svg>
